<svg xmlns="http://www.w3.org/2000/svg" version="1.1" xmlns:xlink="http://www.w3.org/1999/xlink" xmlns:svgjs="http://svgjs.dev/svgjs" width="1000" height="1000" viewBox="0 0 1000 1000"><rect width="1000" height="1000" fill="#000000"></rect><g transform="matrix(0.7,0,0,0.7,149.57575757575756,282.1265587044535)"><svg viewBox="0 0 396 247" data-background-color="#ffffff" preserveAspectRatio="xMidYMid meet" height="623" width="1000" xmlns="http://www.w3.org/2000/svg" xmlns:xlink="http://www.w3.org/1999/xlink"><defs></defs><g id="tight-bounds" transform="matrix(1,0,0,1,0.2400000000000091,-0.09999999999999432)"><svg viewBox="0 0 395.52 247.2" height="247.2" width="395.52"><g><svg></svg></g><g><svg viewBox="0 0 395.52 247.2" height="247.2" width="395.52"><g transform="matrix(2.452, 0, 0, 2.452, 75.1599906463623, 1)"><svg xmlns="http://www.w3.org/2000/svg" xmlns:xlink="http://www.w3.org/1999/xlink" version="1.1" x="0" y="0" viewBox="0 0 100.00000762939453 100" enable-background="new 0 0 100 100" xml:space="preserve" width="100.00000762939453" height="100" class="icon-none" data-fill-palette-color="accent" id="none"><g fill="#7fdbff" data-fill-palette-color="accent"><path d="M16 12.5c0-1.9-1.6-3.5-3.5-3.5S9 10.6 9 12.5s1.6 3.5 3.5 3.5S16 14.4 16 12.5zM10 12.5c0-1.4 1.1-2.5 2.5-2.5s2.5 1.1 2.5 2.5S13.9 15 12.5 15 10 13.9 10 12.5z" fill="#ffffff" data-fill-palette-color="accent"></path><path d="M14 12.5c0-0.8-0.7-1.5-1.5-1.5S11 11.7 11 12.5s0.7 1.5 1.5 1.5S14 13.3 14 12.5zM12 12.5c0-0.3 0.2-0.5 0.5-0.5s0.5 0.2 0.5 0.5S12.8 13 12.5 13 12 12.8 12 12.5z" fill="#ffffff" data-fill-palette-color="accent"></path><path d="M97 0H61c-1.7 0-3 1.3-3 3v28H47V10c0-2.8-2.2-5-5-5H10c-2.8 0-5 2.2-5 5v29c-2.8 0-5 2.2-5 5v51c0 2.8 2.2 5 5 5h32c2.8 0 5-2.2 5-5h51c3.9 0 7-3.1 7-7 0 0 0 0 0 0 0-0.1 0-0.2-0.1-0.4 0 0 0-0.1-0.1-0.1 0-0.1-0.1-0.1-0.1-0.2 0 0-0.1-0.1-0.1-0.1 0 0-0.1-0.1-0.1-0.1l-14.1-9.4c0.4-0.5 0.6-1.1 0.6-1.7v-4h11c1.7 0 3-1.3 3-3V3C100 1.3 98.7 0 97 0zM42 74h39V36H19v3h-3v-3c0-1.7 1.3-3 3-3h62c1.7 0 3 1.3 3 3v40c0 0.6-0.4 1-1 1H42V74zM7 10c0-1.7 1.3-3 3-3h32c1.7 0 3 1.3 3 3v21H19c-2.8 0-5 2.2-5 5v3H7V10zM40 95c0 1.7-1.3 3-3 3H5c-1.7 0-3-1.3-3-3V44c0-1.7 1.3-3 3-3h32c1.7 0 3 1.3 3 3V95zM37 39H20v-2h60v36H42V44C42 41.2 39.8 39 37 39zM93 93H42v-4h0.1c0.4 1.7 2 3 3.9 3h8c1.9 0 3.4-1.3 3.9-3h40C97.4 91.3 95.4 93 93 93zM44 88h12c0 1.1-0.9 2-2 2h-8C44.9 90 44 89.1 44 88zM95.7 87H57 43h-1v-8h41 0.7L95.7 87zM98 69c0 0.6-0.4 1-1 1H86V36c0-2.8-2.2-5-5-5H60v-6h38V69zM98 23H60V3c0-0.6 0.4-1 1-1h36c0.6 0 1 0.4 1 1V23z" fill="#ffffff" data-fill-palette-color="accent"></path><path d="M94 4H64c-1.1 0-2 0.9-2 2s0.9 2 2 2h30c1.1 0 2-0.9 2-2S95.1 4 94 4zM94 7H64c-0.6 0-1-0.4-1-1s0.4-1 1-1h30c0.6 0 1 0.4 1 1S94.6 7 94 7z" fill="#ffffff" data-fill-palette-color="accent"></path><path d="M94 10H64c-1.1 0-2 0.9-2 2s0.9 2 2 2h30c1.1 0 2-0.9 2-2S95.1 10 94 10zM94 13H64c-0.6 0-1-0.4-1-1s0.4-1 1-1h30c0.6 0 1 0.4 1 1S94.6 13 94 13z" fill="#ffffff" data-fill-palette-color="accent"></path><path d="M94 31c1.1 0 2-0.9 2-2 0-1.1-0.9-2-2-2s-2 0.9-2 2C92 30.1 92.9 31 94 31zM94 28c0.6 0 1 0.4 1 1s-0.4 1-1 1-1-0.4-1-1S93.4 28 94 28z" fill="#ffffff" data-fill-palette-color="accent"></path><path d="M50.9 57.6c0.1 0 0.3 0 0.4-0.1l14.1-14.1c0.2-0.2 0.2-0.5 0-0.7s-0.5-0.2-0.7 0L50.6 56.8c-0.2 0.2-0.2 0.5 0 0.7C50.7 57.6 50.8 57.6 50.9 57.6z" fill="#ffffff" data-fill-palette-color="accent"></path><path d="M50.9 62.5c0.1 0 0.3 0 0.4-0.1l14.1-14.1c0.2-0.2 0.2-0.5 0-0.7s-0.5-0.2-0.7 0L50.6 61.6c-0.2 0.2-0.2 0.5 0 0.7C50.7 62.5 50.8 62.5 50.9 62.5z" fill="#ffffff" data-fill-palette-color="accent"></path><path d="M4 88h34V44H4V88zM5 45h32v42H5V45z" fill="#ffffff" data-fill-palette-color="accent"></path><path d="M21 90c-1.7 0-3 1.3-3 3s1.3 3 3 3 3-1.3 3-3S22.7 90 21 90zM21 95c-1.1 0-2-0.9-2-2s0.9-2 2-2 2 0.9 2 2S22.1 95 21 95z" fill="#ffffff" data-fill-palette-color="accent"></path><path d="M18.5 43h5c0.3 0 0.5-0.2 0.5-0.5 0-0.3-0.2-0.5-0.5-0.5h-5c-0.3 0-0.5 0.2-0.5 0.5C18 42.8 18.2 43 18.5 43z" fill="#ffffff" data-fill-palette-color="accent"></path></g></svg></g><rect width="348.05760000000004" height="38.228745669384836" fill="#ffffff" y="104.48562716530758" x="23.731199999999973" data-fill-palette-color="quaternary"></rect><g transform="matrix(1,0,0,1,39.55199999999999,110.61603310344827)"><svg viewBox="0 0 316.416 25.96793379310345" height="25.96793379310345" width="316.416"><g><svg viewBox="0 0 316.416 25.96793379310345" height="25.96793379310345" width="316.416"><g><svg viewBox="0 0 316.416 25.96793379310345" height="25.96793379310345" width="316.416"><g><svg viewBox="0 0 316.416 25.96793379310345" height="25.96793379310345" width="316.416"><g><svg viewBox="0 0 316.416 25.96793379310345" height="25.96793379310345" width="316.416"><g transform="matrix(1,0,0,1,0,0)"><svg width="316.416" viewBox="1.75 -35 434.9599914550781 35.70000076293945" height="25.96793379310345" data-palette-color="#146c6c"><path d="M36.4-22.4L30.6-22.4 30.6-29.05 14.2-29.05 14.2-19.4 20.8-19.4 20.8-23.7 25.75-23.7 25.75-10.35 20.8-10.35 20.8-14.65 14.2-14.65 14.2-5.25 30.6-5.25 30.6-11.9 36.4-11.9 36.4 0 1.75 0 1.75-5.25 7.7-5.25 7.7-29.05 1.75-29.05 1.75-34.3 36.4-34.3 36.4-22.4ZM52.2-4.95L57.25-4.95 57.25 0 40.95 0 40.95-4.95 45.95-4.95 45.95-29.35 40.95-29.35 40.95-34.3 52.2-34.3 52.2-4.95ZM81.65-7.7L84.25-3.6Q79.25 0.7 72.7 0.7L72.7 0.7Q69.2 0.7 66.12-0.7 63.05-2.1 61.15-4.8 59.25-7.5 59.25-11.25L59.25-11.25Q59.25-15.15 61.15-18.07 63.05-21 66.2-22.6 69.34-24.2 72.9-24.2L72.9-24.2Q76-24.2 78.42-23.25 80.84-22.3 82.22-20.58 83.59-18.85 83.59-16.6L83.59-16.6Q83.59-14.35 82.22-12.73 80.84-11.1 78.62-10.3 76.4-9.5 73.84-9.5L73.84-9.5Q71.45-9.5 69.42-10 67.4-10.5 65.25-11.4L65.25-11.4Q65.3-8.2 67.5-6.38 69.7-4.55 72.95-4.55L72.95-4.55Q77.9-4.6 81.65-7.7L81.65-7.7ZM73.34-19.3Q71.09-19.3 69.07-18.07 67.05-16.85 66-14.8L66-14.8Q69.09-13.7 72.34-13.7L72.34-13.7Q74.59-13.75 75.97-14.5 77.34-15.25 77.34-16.6L77.34-16.6Q77.34-17.8 76.25-18.55 75.15-19.3 73.34-19.3L73.34-19.3ZM108.69-7.8L111.34-3.7Q109.09-1.6 106.29-0.45 103.49 0.7 100.29 0.7L100.29 0.7Q96.84 0.7 93.89-0.9 90.94-2.5 89.19-5.35 87.44-8.2 87.44-11.8L87.44-11.8Q87.44-15.2 89.07-18.05 90.69-20.9 93.42-22.55 96.14-24.2 99.29-24.2L99.29-24.2Q101.69-24.2 103.39-23.43 105.09-22.65 106.44-21.15L106.44-21.15 106.44-23.55 110.84-23.55 110.84-15.15 108.19-14.95Q105.64-19.1 101.19-19.1L101.19-19.1Q98.04-19.1 95.99-17.07 93.94-15.05 93.94-11.9L93.94-11.9Q93.94-9.75 94.92-8.1 95.89-6.45 97.52-5.53 99.14-4.6 101.04-4.55L101.04-4.55Q103.29-4.55 105.07-5.38 106.84-6.2 108.69-7.8L108.69-7.8ZM132.59-6.45L134.74-1.8Q132.94-0.65 131.04 0 129.14 0.65 126.74 0.65L126.74 0.65Q122.54 0.65 120.12-2 117.69-4.65 117.69-9.35L117.69-9.35 117.69-18.6 112.74-18.6 112.74-23.55 117.69-23.55 117.69-30.1 123.94-30.1 123.94-23.55 131.14-23.55 131.14-18.6 123.94-18.6 123.94-9.3Q123.94-7.1 124.94-5.98 125.94-4.85 127.79-4.85L127.79-4.85Q129.04-4.85 130.14-5.25 131.24-5.65 132.59-6.45L132.59-6.45ZM157.59-24.15L160.09-24.15 160.09-13.65 154.64-13.65 154.64-17.95Q153.19-17.95 151.16-16.68 149.14-15.4 147.04-13.1L147.04-13.1 147.04-4.95 152.09-4.95 152.09 0 135.79 0 135.79-4.95 140.79-4.95 140.79-18.6 135.79-18.6 135.79-23.55 147.04-23.55 147.04-18.05Q149.54-20.85 152.31-22.5 155.09-24.15 157.59-24.15L157.59-24.15ZM176.39 0.7Q172.89 0.7 169.84-0.85 166.79-2.4 164.94-5.25 163.09-8.1 163.09-11.75L163.09-11.75Q163.09-15.4 164.94-18.25 166.79-21.1 169.84-22.65 172.89-24.2 176.39-24.2L176.39-24.2Q179.79-24.2 182.86-22.65 185.94-21.1 187.81-18.25 189.69-15.4 189.69-11.75L189.69-11.75Q189.69-8.1 187.86-5.25 186.04-2.4 182.99-0.85 179.94 0.7 176.39 0.7L176.39 0.7ZM176.44-4.25Q179.34-4.25 181.26-6.3 183.19-8.35 183.19-11.75L183.19-11.75Q183.19-15.15 181.26-17.2 179.34-19.25 176.44-19.25L176.44-19.25Q173.49-19.25 171.56-17.2 169.64-15.15 169.64-11.75L169.64-11.75Q169.64-8.35 171.56-6.3 173.49-4.25 176.44-4.25L176.44-4.25ZM223.38-4.95L227.68-4.95 227.68 0 213.03 0 213.03-4.95 217.13-4.95 217.13-13.1Q217.13-15.5 215.86-16.9 214.58-18.3 212.23-18.3L212.23-18.3Q208.43-18.3 204.03-13.3L204.03-13.3 204.03-4.95 208.08-4.95 208.08 0 192.78 0 192.78-4.95 197.78-4.95 197.78-18.6 192.78-18.6 192.78-23.55 204.03-23.55 204.03-18.15Q206.73-21.2 209.21-22.68 211.68-24.15 214.53-24.15L214.53-24.15Q218.83-24.15 221.11-21.35 223.38-18.55 223.38-13.15L223.38-13.15 223.38-4.95ZM237.23-28Q235.38-28 234.13-29 232.88-30 232.88-31.45L232.88-31.45Q232.88-33 234.13-34 235.38-35 237.23-35L237.23-35Q239.18-35 240.41-34 241.63-33 241.63-31.45L241.63-31.45Q241.63-29.95 240.41-28.98 239.18-28 237.23-28L237.23-28ZM240.83-4.95L245.88-4.95 245.88 0 229.58 0 229.58-4.95 234.58-4.95 234.58-18.6 229.58-18.6 229.58-23.55 240.83-23.55 240.83-4.95ZM268.93-7.8L271.58-3.7Q269.33-1.6 266.53-0.45 263.73 0.7 260.53 0.7L260.53 0.7Q257.08 0.7 254.13-0.9 251.18-2.5 249.43-5.35 247.68-8.2 247.68-11.8L247.68-11.8Q247.68-15.2 249.3-18.05 250.93-20.9 253.65-22.55 256.38-24.2 259.53-24.2L259.53-24.2Q261.93-24.2 263.63-23.43 265.33-22.65 266.68-21.15L266.68-21.15 266.68-23.55 271.08-23.55 271.08-15.15 268.43-14.95Q265.88-19.1 261.43-19.1L261.43-19.1Q258.28-19.1 256.23-17.07 254.18-15.05 254.18-11.9L254.18-11.9Q254.18-9.75 255.15-8.1 256.13-6.45 257.75-5.53 259.38-4.6 261.28-4.55L261.28-4.55Q263.53-4.55 265.3-5.38 267.08-6.2 268.93-7.8L268.93-7.8ZM287.23-14.4Q291.78-13.1 294.2-11.15 296.63-9.2 296.63-6.05L296.63-6.05Q296.63-4.1 295.48-2.55 294.33-1 292.33-0.15 290.33 0.7 287.88 0.7L287.88 0.7Q285.38 0.7 283.13-0.1 280.88-0.9 279.13-2.4L279.13-2.4 279.13 0.05 274.58 0.05 274.58-7.7 277.33-7.95Q278.83-6.05 281.58-4.7 284.33-3.35 286.68-3.35L286.68-3.35Q288.33-3.35 289.23-3.93 290.13-4.5 290.13-5.5L290.13-5.5Q290.13-6.6 288.7-7.45 287.28-8.3 283.63-9.3L283.63-9.3Q279.13-10.55 276.83-12.43 274.53-14.3 274.53-17.3L274.53-17.3Q274.53-19.2 275.58-20.78 276.63-22.35 278.53-23.28 280.43-24.2 282.93-24.2L282.93-24.2Q287.58-24.2 290.78-21.25L290.78-21.25 290.78-23.55 295.33-23.55 295.33-15.85 292.58-15.6Q291.23-17.75 289.1-18.95 286.98-20.15 284.68-20.15L284.68-20.15Q283.08-20.15 282.05-19.55 281.03-18.95 281.03-18L281.03-18Q281.03-16.95 282.4-16.18 283.78-15.4 287.23-14.4L287.23-14.4ZM360.12-34.3L360.12-29.05 354.32-29.05 354.32 0.3 350.87 0.35 328.02-25.25 328.02-5.25 333.92-5.25 333.92 0 315.77 0 315.77-5.25 321.77-5.25 321.77-29.05 315.77-29.05 315.77-34.3 328.02-34.3 348.22-11.1 348.22-29.05 342.22-29.05 342.22-34.3 360.12-34.3ZM384.67-7.7L387.27-3.6Q382.27 0.7 375.72 0.7L375.72 0.7Q372.22 0.7 369.14-0.7 366.07-2.1 364.17-4.8 362.27-7.5 362.27-11.25L362.27-11.25Q362.27-15.15 364.17-18.07 366.07-21 369.22-22.6 372.37-24.2 375.92-24.2L375.92-24.2Q379.02-24.2 381.44-23.25 383.87-22.3 385.24-20.58 386.62-18.85 386.62-16.6L386.62-16.6Q386.62-14.35 385.24-12.73 383.87-11.1 381.64-10.3 379.42-9.5 376.87-9.5L376.87-9.5Q374.47-9.5 372.44-10 370.42-10.5 368.27-11.4L368.27-11.4Q368.32-8.2 370.52-6.38 372.72-4.55 375.97-4.55L375.97-4.55Q380.92-4.6 384.67-7.7L384.67-7.7ZM376.37-19.3Q374.12-19.3 372.09-18.07 370.07-16.85 369.02-14.8L369.02-14.8Q372.12-13.7 375.37-13.7L375.37-13.7Q377.62-13.75 378.99-14.5 380.37-15.25 380.37-16.6L380.37-16.6Q380.37-17.8 379.27-18.55 378.17-19.3 376.37-19.3L376.37-19.3ZM403.37-14.4Q407.92-13.1 410.34-11.15 412.77-9.2 412.77-6.05L412.77-6.05Q412.77-4.1 411.62-2.55 410.47-1 408.47-0.15 406.47 0.7 404.02 0.7L404.02 0.7Q401.52 0.7 399.27-0.1 397.02-0.9 395.27-2.4L395.27-2.4 395.27 0.05 390.72 0.05 390.72-7.7 393.47-7.95Q394.97-6.05 397.72-4.7 400.47-3.35 402.82-3.35L402.82-3.35Q404.47-3.35 405.37-3.93 406.27-4.5 406.27-5.5L406.27-5.5Q406.27-6.6 404.84-7.45 403.42-8.3 399.77-9.3L399.77-9.3Q395.27-10.55 392.97-12.43 390.67-14.3 390.67-17.3L390.67-17.3Q390.67-19.2 391.72-20.78 392.77-22.35 394.67-23.28 396.57-24.2 399.07-24.2L399.07-24.2Q403.72-24.2 406.92-21.25L406.92-21.25 406.92-23.55 411.47-23.55 411.47-15.85 408.72-15.6Q407.37-17.75 405.24-18.95 403.12-20.15 400.82-20.15L400.82-20.15Q399.22-20.15 398.19-19.55 397.17-18.95 397.17-18L397.17-18Q397.17-16.95 398.54-16.18 399.92-15.4 403.37-14.4L403.37-14.4ZM434.56-6.45L436.71-1.8Q434.91-0.65 433.01 0 431.11 0.65 428.71 0.65L428.71 0.65Q424.51 0.65 422.09-2 419.66-4.65 419.66-9.35L419.66-9.35 419.66-18.6 414.71-18.6 414.71-23.55 419.66-23.55 419.66-30.1 425.91-30.1 425.91-23.55 433.11-23.55 433.11-18.6 425.91-18.6 425.91-9.3Q425.91-7.1 426.91-5.98 427.91-4.85 429.76-4.85L429.76-4.85Q431.01-4.85 432.11-5.25 433.21-5.65 434.56-6.45L434.56-6.45Z" opacity="1" transform="matrix(1,0,0,1,0,0)" fill="#ffffff" class="undefined-text-0" data-fill-palette-color="primary" id="text-0"></path></svg></g></svg></g></svg></g></svg></g><g></g></svg></g></svg></g></svg></g></svg><rect width="395.52" height="247.2" fill="none" stroke="none" visibility="hidden"></rect></g></svg></g></svg>